<svg xmlns="http://www.w3.org/2000/svg" width="350" height="350" fill="none"><style>@media (prefers-color-scheme:dark){.a{fill:#f0f0f0}}</style><path fill="#000" fill-rule="evenodd" d="m164.09 11.734-3.25 2.735-3.895 8.43-3.894 8.43-6.275 15.086-6.274 15.085-2.121 6.5-2.121 6.5-1.995 10-1.994 10-1.636 14-1.635 14 .639 7.292.638 7.292 2.033 6.582 2.033 6.582 2.376 2.376 2.376 2.376h9.091l-.017-1.25-.017-1.25-1.966-7.5-1.966-7.5-.017-9.699-.017-9.699 1.529-11.801 1.529-11.801 2.404-10 2.404-10 4.99-13 4.99-13 1.74-4.279 1.74-4.279 1.038.346 1.037.346-.247 9.933-.248 9.933-.92 10.5-.92 10.5-1.057 21-1.056 21-1.43 26.5-1.429 26.5-.597 13.5-.598 13.5-1.43 17-1.431 17-2.13 31.353-2.129 31.354.375 13.65.374 13.651 2.023 3.463 2.022 3.463 5.328 2.783 5.327 2.783h11.982l5.128-2.576 5.129-2.576 6.636-5.361 6.635-5.362 4.511-5.312 4.511-5.313 4.12-5.916 4.12-5.916v-3.731l-1.295-.497-1.294-.496-4.335 1.529-4.335 1.53-8.12 6.829-8.121 6.829-5 3.577-5 3.577-5.874 2.592-5.875 2.593h-2.506l-1.147-1.382-1.147-1.383-.105-19.367-.104-19.368 1.672-19 1.671-19 1.485-17 1.485-17 2.496-43.5 2.496-43.5 1.453-25.5 1.452-25.5 1.035-14.5 1.035-14.5.062-11.282.063-11.282-2.176-4.495-2.176-4.495-3.242-2.473L171.497 9h-4.158l-3.249 2.734Z" class="a" clip-rule="evenodd"/></svg>