<svg id="svg" xmlns="http://www.w3.org/2000/svg" xmlns:xlink="http://www.w3.org/1999/xlink" width="400"
  height="305.0946142649199" viewBox="0, 0, 400,305.0946142649199">
  <g id="svgg">
    <path id="path0"
      d="M27.948 1.261 C 25.807 2.948,24.341 4.618,23.438 6.399 C 21.558 10.110,12.465 31.279,9.180 39.592 C 5.757 48.258,2.567 62.141,1.591 72.622 C 1.351 75.191,0.934 78.734,0.663 80.495 C -0.713 89.434,0.583 101.265,3.747 108.645 C 5.381 112.458,8.760 114.045,13.732 113.336 L 15.383 113.100 13.943 107.424 C 10.792 95.009,10.999 83.827,14.736 64.483 C 17.081 52.347,27.074 24.464,29.081 24.457 L 29.778 24.454 29.583 29.330 C 29.245 37.773,28.821 45.098,28.372 50.210 C 27.888 55.730,26.905 72.401,26.631 79.767 C 26.532 82.409,26.203 88.697,25.899 93.741 C 24.890 110.464,24.758 112.963,23.873 132.169 C 22.985 151.439,22.841 153.719,21.831 164.483 C 21.523 167.766,21.003 174.840,20.676 180.204 C 20.348 185.568,19.603 196.114,19.019 203.639 C 17.157 227.633,17.405 245.539,19.651 249.371 C 21.534 252.585,27.855 255.890,33.012 256.357 C 42.805 257.245,56.649 246.831,68.133 229.938 C 71.104 225.568,71.395 224.498,69.993 223.096 C 67.992 221.095,62.867 223.663,54.314 230.953 C 44.850 239.020,41.306 241.257,32.976 244.425 C 29.412 245.780,29.267 245.444,28.800 234.789 C 28.278 222.838,28.552 214.491,29.952 199.810 C 30.595 193.061,31.202 185.659,31.299 183.362 C 31.397 181.064,31.727 176.499,32.033 173.217 C 33.965 152.487,33.898 153.393,34.793 135.517 C 35.185 127.671,35.703 118.042,35.942 114.119 C 36.182 110.197,36.513 104.236,36.678 100.873 C 36.844 97.511,37.231 92.074,37.539 88.792 C 37.847 85.509,38.177 80.662,38.272 78.020 C 38.559 70.097,38.993 62.104,40.028 45.706 C 42.150 12.088,42.116 11.114,38.656 5.617 C 35.322 0.321,31.247 -1.337,27.948 1.261 M111.494 176.234 C 103.530 178.976,102.024 180.206,96.652 188.355 C 90.573 197.576,88.480 202.494,87.048 210.917 C 86.585 213.639,85.946 217.309,85.628 219.073 C 84.135 227.359,84.167 231.547,85.786 239.447 C 87.495 247.786,88.109 248.924,92.778 252.390 C 97.031 255.548,97.721 255.714,102.380 254.705 C 119.607 250.973,130.521 239.511,133.190 222.348 C 135.941 204.658,132.581 192.660,121.129 179.274 C 117.265 174.758,116.490 174.513,111.494 176.234 M349.267 178.918 C 339.960 180.601,333.046 187.124,329.293 197.762 C 320.281 223.307,339.423 254.508,363.297 253.187 C 376.881 252.434,394.852 242.846,399.718 233.754 C 400.099 233.041,394.999 231.822,390.510 231.553 L 387.279 231.359 384.396 233.130 C 373.946 239.549,363.243 242.471,356.451 240.759 C 345.304 237.948,338.427 228.222,338.188 214.925 C 338.118 211.049,338.479 210.482,342.286 208.480 C 346.741 206.137,352.628 201.421,356.321 197.234 C 360.119 192.930,360.742 188.463,358.270 183.259 C 356.095 178.680,354.593 177.955,349.267 178.918 M273.485 187.604 C 271.206 188.596,268.244 192.205,267.245 195.207 C 266.428 197.662,265.805 198.105,263.525 197.847 L 261.849 197.657 260.897 199.229 C 259.671 201.251,259.540 201.789,258.825 207.715 C 257.773 216.448,257.623 220.382,257.966 230.277 C 258.142 235.320,258.385 250.648,258.507 264.338 C 258.747 291.293,258.726 290.958,260.433 296.406 C 262.471 302.914,263.486 304.229,266.891 304.767 C 270.814 305.387,271.870 301.603,270.764 290.889 C 269.659 280.181,269.083 246.395,269.990 245.488 C 270.031 245.447,270.839 245.800,271.786 246.273 C 278.787 249.768,286.699 248.241,290.873 242.590 C 291.496 241.747,292.744 240.236,293.645 239.233 C 298.817 233.479,300.785 227.688,300.844 218.049 C 300.899 209.124,298.659 203.326,292.140 195.520 C 287.394 189.837,277.753 185.745,273.485 187.604 M118.016 189.887 C 123.096 198.038,124.763 208.733,122.563 219.049 C 120.326 229.532,116.196 233.828,102.538 239.880 C 95.372 243.054,94.911 242.697,94.011 233.275 C 93.644 229.433,94.031 225.201,95.066 221.746 C 95.460 220.434,96.232 217.722,96.783 215.721 C 100.118 203.596,106.098 194.388,113.976 189.246 C 116.768 187.423,116.448 187.372,118.016 189.887 M160.934 190.902 C 159.571 192.364,159.437 192.932,159.301 197.826 C 158.935 210.968,162.795 223.268,171.312 236.099 C 175.705 242.717,178.783 244.978,183.399 244.978 C 187.916 244.978,189.318 243.980,195.999 236.005 C 198.390 233.152,200.389 230.859,200.440 230.911 C 200.491 230.962,200.813 231.713,201.154 232.578 C 205.075 242.527,215.015 248.410,223.726 245.939 C 226.151 245.251,225.999 244.819,221.445 239.423 C 217.625 234.898,217.497 234.781,216.006 234.430 C 210.792 233.205,208.153 224.358,208.152 208.104 C 208.151 198.019,206.991 193.686,203.813 191.899 C 200.125 189.827,198.165 192.150,197.095 199.864 C 195.546 211.038,195.430 211.466,192.155 218.195 C 187.766 227.211,183.098 232.678,180.826 231.463 C 180.141 231.096,174.859 222.371,173.387 219.175 C 171.375 214.804,170.172 209.918,169.276 202.475 C 168.370 194.935,167.138 191.802,164.629 190.649 C 162.934 189.871,161.825 189.947,160.934 190.902 M282.257 201.610 C 292.635 207.558,292.776 224.358,282.525 233.726 C 280.275 235.783,274.650 238.251,270.815 238.864 C 269.300 239.106,269.334 239.824,270.453 231.229 C 272.182 217.957,273.170 213.825,276.733 204.979 C 278.590 200.370,279.318 199.926,282.257 201.610 "
      stroke="none" fill="#000000" fill-rule="evenodd"></path>
  </g>
</svg>