<?xml version="1.0" standalone="no"?>
<!DOCTYPE svg PUBLIC "-//W3C//DTD SVG 20010904//EN"
 "http://www.w3.org/TR/2001/REC-SVG-20010904/DTD/svg10.dtd">
<svg version="1.0" xmlns="http://www.w3.org/2000/svg"
 width="590.000000pt" height="590.000000pt" viewBox="0 0 590.000000 590.000000"
 preserveAspectRatio="xMidYMid meet">
<metadata>
Created by potrace 1.14, written by Peter Selinger 2001-2017
</metadata>
<g transform="translate(0.000000,590.000000) scale(0.100000,-0.100000)"
fill="#000000" stroke="none">
<path d="M2873 5628 c-34 -32 -59 -69 -94 -143 -67 -142 -224 -521 -259 -628
-43 -127 -86 -349 -111 -572 -23 -211 -21 -296 12 -435 26 -111 56 -168 99
-191 34 -19 125 -26 133 -11 2 4 -9 59 -26 122 -27 102 -30 131 -30 255 0 148
28 386 64 549 25 113 101 341 169 506 28 69 54 133 57 143 3 10 11 16 17 14
15 -5 11 -256 -8 -512 -9 -110 -20 -301 -26 -425 -6 -124 -15 -295 -20 -380
-6 -85 -19 -344 -30 -575 -11 -231 -27 -494 -35 -585 -8 -91 -22 -269 -30
-396 -8 -128 -22 -321 -30 -430 -17 -228 -20 -576 -5 -654 14 -74 47 -113 134
-155 63 -32 83 -37 142 -37 44 0 88 7 120 20 76 28 197 116 294 212 97 96 240
290 240 326 0 25 -26 44 -50 37 -74 -21 -117 -48 -233 -145 -173 -143 -214
-171 -327 -219 -110 -47 -121 -45 -133 27 -16 105 -9 513 12 729 11 116 23
255 26 310 4 55 15 197 26 315 17 192 38 542 69 1145 6 110 13 206 15 213 3 7
9 115 15 240 6 125 19 364 31 532 11 168 21 382 22 475 2 147 -1 175 -17 210
-38 83 -117 155 -170 155 -9 0 -37 -19 -63 -42z"/>
</g>
</svg>
